# xmcd
# 
# Track frame offsets:
#     150
#     19200
#     38550
#     55650
#     77150
#     96850
#     114462
#     134775
#     151925
#     175187
# 
# Disc length: 2560
# 
# Revision: 2
# Processed by: cddbd v1.5.2PL0 Copyright (c) Steve Scherf et al.
# Submitted via: fre:ac v1.0.31
# 
DISCID=7a09fe0a
DTITLE=張清芳 - 親愛的請不要說
DYEAR=1986
DGENRE=Pop
TTITLE0=親愛的請不要說
TTITLE1=就要走了
TTITLE2=發生了什麼事情
TTITLE3=其實你我一樣孤獨
TTITLE4=讓我明白愛我
TTITLE5=如何知道這是錯
TTITLE6=再一次
TTITLE7=心的那個角落
TTITLE8=雨中的女孩
TTITLE9=窗前的心
EXTD=
EXTT0=
EXTT1=
EXTT2=
EXTT3=
EXTT4=
EXTT5=
EXTT6=
EXTT7=
EXTT8=
EXTT9=
PLAYORDER=
